<mxfile host="app.diagrams.net" modified="2023-10-18T20:09:59.145Z" agent="Mozilla/5.0 (Macintosh; Intel Mac OS X 10.15; rv:109.0) Gecko/20100101 Firefox/117.0" version="22.0.4" etag="emJ1JkqwAk60vPysxz_e" type="github">
  <diagram name="Page-1" id="8fNOAIj_w3cmwyOY_skU">
    <mxGraphModel>
      <root>
        <mxCell id="0" />
        <mxCell id="1" parent="0" />
      </root>
    </mxGraphModel>
  </diagram>
</mxfile>
